<svg width="824" height="154" viewBox="0 0 824 154" fill="none" xmlns="http://www.w3.org/2000/svg">
<path d="M2 4.08333H34.0696L48.3682 108.458H48.7767L63.0753 4.08333H95.1449V149.917H73.9014V39.5H73.4928L57.1516 149.917H38.3592L22.018 39.5H21.6095V149.917H2V4.08333ZM115.998 4.08333H177.277V24.9167H138.467V63.4583H169.31V84.2917H138.467V129.083H177.277V149.917H115.998V4.08333ZM211.856 24.9167H188.365V4.08333H257.815V24.9167H234.325V149.917H211.856V24.9167ZM280.767 4.08333H311.202L334.488 149.917H312.019L307.934 120.958V121.375H282.401L278.316 149.917H257.48L280.767 4.08333ZM305.279 101.583L295.27 29.5H294.861L285.056 101.583H305.279ZM378.086 152C367.192 152 358.953 148.875 353.37 142.625C347.787 136.236 344.995 127.139 344.995 115.333V107H366.239V117C366.239 126.444 370.12 131.167 377.882 131.167C381.695 131.167 384.555 130.056 386.461 127.833C388.504 125.472 389.525 121.722 389.525 116.583C389.525 110.472 388.163 105.125 385.44 100.542C382.716 95.8195 377.678 90.1945 370.324 83.6667C361.064 75.3333 354.596 67.8333 350.919 61.1667C347.242 54.3611 345.404 46.7222 345.404 38.25C345.404 26.7222 348.264 17.8333 353.983 11.5833C359.702 5.19444 368.009 2 378.903 2C389.661 2 397.764 5.19444 403.211 11.5833C408.794 17.8333 411.586 26.8611 411.586 38.6667V44.7083H390.342V37.2083C390.342 32.2083 389.389 28.5972 387.483 26.375C385.576 24.0139 382.784 22.8333 379.108 22.8333C371.618 22.8333 367.873 27.4861 367.873 36.7917C367.873 42.0695 369.235 47 371.958 51.5833C374.818 56.1667 379.925 61.7222 387.278 68.25C396.674 76.5833 403.143 84.1528 406.683 90.9583C410.224 97.7639 411.994 105.75 411.994 114.917C411.994 126.861 409.067 136.028 403.211 142.417C397.492 148.806 389.117 152 378.086 152ZM460.624 152C449.866 152 441.627 148.875 435.908 142.625C430.324 136.375 427.533 127.556 427.533 116.167V37.8333C427.533 26.4445 430.324 17.625 435.908 11.375C441.627 5.12501 449.866 2 460.624 2C471.382 2 479.552 5.12501 485.135 11.375C490.855 17.625 493.715 26.4445 493.715 37.8333V53.25H472.471V36.375C472.471 27.3472 468.726 22.8333 461.236 22.8333C453.747 22.8333 450.002 27.3472 450.002 36.375V117.833C450.002 126.722 453.747 131.167 461.236 131.167C468.726 131.167 472.471 126.722 472.471 117.833V95.5417H493.715V116.167C493.715 127.556 490.855 136.375 485.135 142.625C479.552 148.875 471.382 152 460.624 152ZM528.606 4.08333H559.041L582.327 149.917H559.858L555.773 120.958V121.375H530.24L526.154 149.917H505.319L528.606 4.08333ZM553.117 101.583L543.108 29.5H542.7L532.895 101.583H553.117ZM597.314 4.08333H630.405C641.571 4.08333 649.946 7.13888 655.53 13.25C661.113 19.3611 663.904 28.3195 663.904 40.125V54.5C663.904 66.3056 661.113 75.2639 655.53 81.375C649.946 87.4861 641.571 90.5417 630.405 90.5417H619.783V149.917H597.314V4.08333ZM630.405 69.7083C634.082 69.7083 636.805 68.6667 638.576 66.5833C640.482 64.5 641.435 60.9583 641.435 55.9583V38.6667C641.435 33.6667 640.482 30.125 638.576 28.0417C636.805 25.9583 634.082 24.9167 630.405 24.9167H619.783V69.7083H630.405ZM680.193 4.08333H741.473V24.9167H702.662V63.4583H733.506V84.2917H702.662V129.083H741.473V149.917H680.193V4.08333ZM788.092 152C777.198 152 768.959 148.875 763.376 142.625C757.793 136.236 755.001 127.139 755.001 115.333V107H776.245V117C776.245 126.444 780.126 131.167 787.888 131.167C791.701 131.167 794.56 130.056 796.467 127.833C798.51 125.472 799.531 121.722 799.531 116.583C799.531 110.472 798.169 105.125 795.445 100.542C792.722 95.8195 787.683 90.1945 780.33 83.6667C771.07 75.3333 764.601 67.8333 760.925 61.1667C757.248 54.3611 755.41 46.7222 755.41 38.25C755.41 26.7222 758.269 17.8333 763.989 11.5833C769.708 5.19444 778.015 2 788.909 2C799.667 2 807.77 5.19444 813.217 11.5833C818.8 17.8333 821.591 26.8611 821.591 38.6667V44.7083H800.348V37.2083C800.348 32.2083 799.395 28.5972 797.488 26.375C795.582 24.0139 792.79 22.8333 789.113 22.8333C781.624 22.8333 777.879 27.4861 777.879 36.7917C777.879 42.0695 779.241 47 781.964 51.5833C784.824 56.1667 789.93 61.7222 797.284 68.25C806.68 76.5833 813.148 84.1528 816.689 90.9583C820.23 97.7639 822 105.75 822 114.917C822 126.861 819.072 136.028 813.217 142.417C807.497 148.806 799.122 152 788.092 152Z" fill="white" stroke="white" stroke-width="4"/>
</svg>
